<svg width="291" height="66" viewBox="0 0 291 66" fill="none" xmlns="http://www.w3.org/2000/svg">
<path d="M48.4527 49.1505C48.5672 49.1505 48.6434 49.2078 48.6816 49.3224C48.6054 49.4369 48.5481 49.4942 48.5099 49.4942C47.0983 49.4942 45.9157 49.3224 44.9619 48.9786C44.008 48.5967 43.245 48.1003 42.6728 47.4892C42.1387 46.8781 41.7189 45.9808 41.4138 44.7968C41.1467 43.5748 40.9559 42.3526 40.8415 41.1306C40.7652 39.8703 40.727 38.2281 40.727 36.2041V22.7421V18.102H39.5253V17.7583H40.727V15.0659L45.0763 10.7696V17.7583H46.6214V18.102H45.0763V22.1693V29.6736V33.3971V37.2925C45.1145 39.3548 45.1717 41.0543 45.248 42.3909C45.3243 43.6894 45.4769 44.8924 45.7058 45.9998C45.9729 47.1073 46.3163 47.9093 46.7359 48.4058C47.1937 48.9023 47.766 49.1505 48.4527 49.1505ZM76.5961 48.6922C76.9395 48.7686 77.1111 48.845 77.1111 48.9214C77.1111 49.0742 76.9585 49.1505 76.6533 49.1505C76.5007 49.1505 76.2718 49.1505 75.9666 49.1505C75.6995 49.1505 75.2035 49.1315 74.4787 49.0932C73.7538 49.0169 73.1052 48.9023 72.533 48.7495C71.9987 48.5967 71.5029 48.3295 71.045 47.9475C70.6253 47.5656 70.4155 47.1073 70.4155 46.5727C70.4155 45.9616 70.2819 45.6371 70.015 45.5988C69.786 45.5225 69.538 45.6179 69.271 45.8853L68.8704 46.229C66.9627 48.4058 64.5592 49.4942 61.6598 49.4942C58.9891 49.4942 56.681 48.5967 54.7353 46.8018C52.5606 44.7778 51.4733 42.2763 51.4733 39.2975V24.0024C51.168 23.0095 50.5385 22.4367 49.5848 22.2838L49.3559 22.2266C49.2795 22.2266 49.2415 22.1693 49.2415 22.0547C49.2415 21.9401 49.2987 21.8828 49.4131 21.8828H57.7111C58.0163 21.8828 58.1879 21.9401 58.2261 22.0547C58.1879 22.1693 57.9972 22.2456 57.6539 22.2838C56.7382 22.4367 56.1278 23.0095 55.8226 24.0024V39.2975C55.8226 41.9326 56.3567 43.8612 57.425 45.0833C58.4931 46.3053 59.981 47.0692 61.8887 47.3747C63.9107 47.5656 65.7992 47.1455 67.5542 46.1144C69.4617 44.7396 70.4155 42.5245 70.4155 39.4693V24.0024C70.0722 23.0095 69.4427 22.4367 68.527 22.2838H68.2981C68.2217 22.2456 68.1837 22.1693 68.1837 22.0547C68.1837 21.9401 68.2409 21.8828 68.3554 21.8828H76.6533C76.9585 21.8828 77.1111 21.9401 77.1111 22.0547C77.1111 22.1693 76.9395 22.2456 76.5961 22.2838C75.6805 22.4367 75.051 23.0095 74.7076 24.0024V43.5366V46.2863C74.7076 46.8973 74.8983 47.4319 75.2799 47.8902C75.6613 48.3485 76.1001 48.6159 76.5961 48.6922ZM108.255 48.6922C108.599 48.7686 108.77 48.845 108.77 48.9214V49.1505C104.307 49.1505 102.075 48.5013 102.075 47.2028C102.075 46.2863 101.808 45.7516 101.274 45.5988C100.74 45.4079 100.129 45.6561 99.4426 46.3435C99.4426 46.3435 99.4236 46.3626 99.3854 46.4008C99.3472 46.4391 99.3282 46.4581 99.3282 46.4581C97.2298 48.4821 94.8263 49.4942 92.1176 49.4942C88.8746 49.4942 86.0897 48.1384 83.7624 45.427C81.4733 42.6773 80.3287 39.3738 80.3287 35.5167C80.3287 31.6595 81.4733 28.3561 83.7624 25.6064C86.0897 22.8567 88.8746 21.4819 92.1176 21.4819C94.9407 21.4819 97.4587 22.6276 99.6716 24.919C100.091 25.3772 100.454 25.6254 100.759 25.6637C101.102 25.7019 101.35 25.5681 101.503 25.2627C101.694 24.919 101.827 24.5562 101.903 24.1742C101.98 23.7542 102.037 23.2959 102.075 22.7994V7.84803C101.732 6.89323 101.102 6.33957 100.187 6.18676C100.187 6.18676 100.148 6.18676 100.072 6.18676C99.9959 6.14853 99.9577 6.12948 99.9577 6.12948C99.8814 6.09124 99.8432 6.03396 99.8432 5.95762C99.8432 5.84305 99.8814 5.76672 99.9577 5.72849H108.312C108.619 5.72849 108.77 5.80482 108.77 5.95762C108.77 6.03396 108.599 6.11043 108.255 6.18676C107.34 6.33957 106.73 6.89323 106.424 7.84803V46.5154C106.424 47.7757 107.035 48.5013 108.255 48.6922ZM102.075 38.4955V33.2826C101.961 30.2655 101.255 27.9168 99.9577 26.2365C97.9738 24.0979 96.0662 23.0285 94.235 23.0285C91.6025 23.0285 89.4661 24.2315 87.8255 26.6375C86.2231 29.0052 85.422 31.965 85.422 35.5167C85.422 39.0301 86.2231 41.9899 87.8255 44.3958C89.4661 46.8018 91.6025 48.0048 94.235 48.0048C96.1807 48.0048 97.9738 47.1455 99.6143 45.427C99.6525 45.3506 99.6906 45.3124 99.7288 45.3124C101.14 43.6321 101.922 41.3597 102.075 38.4955ZM134.052 21.8828C134.318 21.8828 134.471 21.9401 134.51 22.0547C134.51 22.1693 134.338 22.2456 133.995 22.2838C133.688 22.3602 133.365 22.513 133.022 22.7421C132.716 22.933 132.525 23.1622 132.449 23.4295L125.296 42.6773L123.064 48.5776C119.935 56.9413 118.218 61.5241 117.914 62.326C116.998 64.2737 115.357 65.2476 112.992 65.2476C112.343 65.2476 111.695 65.0375 111.046 64.6174C110.436 64.2737 110.016 63.7582 109.787 63.0708C109.559 62.3451 109.616 61.6386 109.959 60.9512C110.303 60.302 110.818 59.8437 111.504 59.5764C112.228 59.3472 112.915 59.4045 113.564 59.7482C114.251 60.0919 114.728 60.6265 114.995 61.3522C115.224 62.116 115.147 62.8034 114.766 63.4145C114.423 64.0636 113.908 64.5411 113.221 64.8466C115.396 64.8466 116.884 63.911 117.685 62.0396L122.893 48.0621L121.862 45.7707L115.911 31.7359L114.938 29.5017L112.821 24.5752L112.134 22.7994C111.79 22.532 111.408 22.3602 110.989 22.2838C110.646 22.2456 110.474 22.1693 110.474 22.0547C110.474 21.9401 110.626 21.8828 110.932 21.8828H119.344C119.649 21.8828 119.802 21.9401 119.802 22.0547C119.802 22.1693 119.631 22.2456 119.287 22.2838C117.836 22.5512 117.456 23.7733 118.143 25.9501L118.944 27.7832L119.859 30.0173L125.067 42.1617C129.683 29.7499 132.029 23.4678 132.106 23.315C132.143 23.0858 132.086 22.8949 131.934 22.7421C131.781 22.5893 131.61 22.4939 131.419 22.4557C131.266 22.3794 131.056 22.3221 130.79 22.2838C130.447 22.2456 130.275 22.1693 130.275 22.0547C130.275 21.9401 130.426 21.8828 130.733 21.8828H132.106H132.621H133.022C133.173 21.8828 133.365 21.8828 133.594 21.8828C133.823 21.8828 133.975 21.8828 134.052 21.8828ZM196.783 21.4819C200.065 21.4819 202.849 22.8567 205.138 25.6064C207.466 28.3561 208.629 31.6595 208.629 35.5167C208.629 39.3738 207.466 42.6773 205.138 45.427C202.849 48.1384 200.065 49.4942 196.783 49.4942C193.96 49.4942 191.461 48.3485 189.286 46.0571C187.837 44.644 187.017 45.3697 186.825 48.2339V63.1853C187.169 64.1401 187.798 64.6938 188.714 64.8466C188.753 64.8466 188.81 64.8656 188.886 64.9039H188.943C189.057 64.9039 189.115 64.9612 189.115 65.0757C189.115 65.1903 189.057 65.2476 188.943 65.2476H180.588C180.283 65.2476 180.13 65.1903 180.13 65.0757C180.13 64.9994 180.301 64.9229 180.645 64.8466C181.56 64.6938 182.19 64.1401 182.533 63.1853V24.518C182.533 23.2577 181.904 22.513 180.645 22.2838C180.301 22.2456 180.13 22.1883 180.13 22.112V21.8828C184.594 21.8828 186.825 22.532 186.825 23.8305C186.825 24.7471 187.093 25.2817 187.627 25.4345C188.162 25.5873 188.791 25.339 189.515 24.6898C189.515 24.6516 189.515 24.6325 189.515 24.6325C189.554 24.5943 189.592 24.5562 189.63 24.518C191.69 22.4939 194.075 21.4819 196.783 21.4819ZM194.666 48.0048C197.298 48.0048 199.435 46.8018 201.075 44.3958C202.716 41.9899 203.536 39.0301 203.536 35.5167C203.536 33.7981 203.307 32.1751 202.849 30.6475C202.43 29.1198 201.839 27.8022 201.075 26.6948C200.351 25.5491 199.435 24.6516 198.328 24.0024C197.222 23.3532 196.002 23.0285 194.666 23.0285C192.758 23.0285 190.966 23.8878 189.286 25.6064C189.249 25.6827 189.229 25.7209 189.229 25.7209C187.818 27.4013 187.017 29.6546 186.825 32.4806V37.7508C186.94 40.7678 187.665 43.1165 189 44.7968C190.984 46.9354 192.873 48.0048 194.666 48.0048ZM236.142 48.8641C236.257 48.8641 236.314 48.9214 236.314 49.0359C236.314 49.1123 236.257 49.1505 236.142 49.1505H230.477V43.1356C229.752 45.045 228.607 46.5536 227.043 47.6611C225.517 48.7305 223.933 49.3224 222.293 49.4369C220.652 49.5515 219.089 49.3606 217.601 48.8641C216.113 48.3676 215.006 47.642 214.282 46.6872C213.327 45.427 212.774 44.1285 212.622 42.7919C212.508 41.417 212.716 40.214 213.252 39.1829C213.785 38.1135 214.453 37.1779 215.254 36.376C216.093 35.5357 217.008 34.9056 218.001 34.4855C218.345 34.3327 219.222 34.0655 220.634 33.6836C222.044 33.3016 223.438 32.9198 224.811 32.5379C226.222 32.1178 227.119 31.7932 227.501 31.564C227.616 31.4877 227.806 31.3731 228.073 31.2203C228.339 31.0675 228.531 30.9529 228.646 30.8766C228.76 30.8003 228.932 30.7047 229.161 30.5902C229.39 30.4374 229.541 30.3228 229.618 30.2465C229.733 30.1319 229.866 30.0173 230.019 29.9027C230.171 29.7499 230.285 29.6163 230.362 29.5017C230.438 29.3872 230.514 29.2536 230.591 29.1008C230.667 28.9479 230.706 28.7761 230.706 28.5852C230.706 27.0575 230.152 25.74 229.046 24.6325C227.939 23.4868 226.565 22.8185 224.926 22.6276C223.361 22.4747 221.987 22.6466 220.806 23.1431C219.661 23.6014 218.803 24.2698 218.23 25.1481C217.658 26.0264 217.237 26.9049 216.971 27.7832C216.704 28.6234 216.571 29.4254 216.571 30.1892H212.221C212.221 28.6998 212.659 27.3822 213.538 26.2365C214.415 25.0526 215.502 24.1552 216.8 23.5441C218.134 22.8949 219.508 22.4367 220.92 22.1693C222.369 21.8638 223.704 21.7683 224.926 21.8828C227.481 22.0737 229.619 22.6085 231.335 23.4868C233.089 24.3652 234.177 25.5108 234.597 26.9239C235.321 29.3299 235.532 33.2062 235.227 38.5528C235.112 40.8442 235.055 43.8612 235.055 47.6038V47.6611C235.207 48.4631 235.57 48.8641 236.142 48.8641ZM230.82 38.8392L230.878 38.2091L230.82 29.4445C230.019 31.3158 228.206 33.0152 225.384 34.5428C224.658 34.9248 223.914 35.3831 223.152 35.9177C222.388 36.4523 221.625 37.1016 220.863 37.8654C220.099 38.6291 219.489 39.393 219.031 40.1568C218.574 40.8824 218.345 41.6652 218.345 42.5054C218.382 43.3457 218.745 44.1094 219.432 44.7968C220.119 45.4843 220.92 46.0381 221.836 46.4581C222.788 46.84 223.896 46.9546 225.155 46.8018C226.414 46.6109 227.577 46.0189 228.646 45.026C229.866 43.8803 230.553 42.4864 230.706 40.8442L230.82 38.8392ZM261.742 42.3909V45.7707V48.9786C261.742 49.0932 261.684 49.1505 261.57 49.1505C261.494 49.1505 261.455 49.0932 261.455 48.9786V48.6349C261.455 48.5967 261.437 48.5586 261.398 48.5204C261.398 48.4821 261.398 48.444 261.398 48.4058C261.322 47.9858 261.094 47.7184 260.712 47.6038C260.33 47.4892 259.853 47.5083 259.281 47.6611C258.747 47.8139 258.193 48.0048 257.621 48.2339C257.088 48.4248 256.495 48.6349 255.847 48.8641C255.236 49.055 254.76 49.1505 254.417 49.1505H254.474C253.558 49.3796 252.661 49.4942 251.784 49.4942C248.541 49.4942 245.757 48.1384 243.429 45.427C241.14 42.6773 239.995 39.3738 239.995 35.5167C239.995 31.6595 241.14 28.3561 243.429 25.6064C245.757 22.8567 248.541 21.4819 251.784 21.4819C253.844 21.4819 255.771 22.131 257.564 23.4295C259.357 24.6898 260.75 26.3701 261.742 28.4706V29.158C260.865 27.5541 259.681 26.141 258.194 24.919C256.706 23.6587 255.275 23.0285 253.901 23.0285C252.146 23.0285 250.582 23.5823 249.209 24.6898C247.874 25.7973 246.844 27.3059 246.119 29.2153C245.432 31.0867 245.088 33.187 245.088 35.5167C245.088 39.0301 245.89 41.9899 247.492 44.3958C249.133 46.8018 251.269 48.0048 253.901 48.0048C255.428 48.0048 256.896 47.4319 258.308 46.2863C259.72 45.1406 260.865 43.5556 261.742 41.5316V42.3909ZM277.957 48.9786C279.788 48.9786 281.372 48.0048 282.707 46.0571C284.08 44.1094 284.959 41.6079 285.339 38.5528H290.318C289.709 41.7225 288.239 44.3386 285.912 46.4008C283.622 48.4631 280.971 49.4942 277.957 49.4942C274.486 49.4942 271.51 48.1384 269.029 45.427C266.55 42.6773 265.31 39.3738 265.31 35.5167C265.31 32.9579 265.863 30.6092 266.969 28.4706C268.114 26.332 269.659 24.6325 271.605 23.3723C273.55 22.112 275.668 21.4819 277.957 21.4819C280.971 21.4819 283.622 22.532 285.912 24.6325C288.239 26.6948 289.709 29.3109 290.318 32.4806H287.514V32.5379H276.927V32.1369H285.282C285.016 30.1892 284.519 28.4516 283.794 26.9239C283.107 25.3963 282.249 24.2125 281.219 23.3723C280.227 22.4939 279.14 22.0547 277.957 22.0547C275.86 22.0547 274.066 23.3532 272.578 25.9501C271.128 28.5089 270.403 31.6976 270.403 35.5167C270.403 39.3357 271.128 42.5437 272.578 45.1406C274.066 47.6993 275.86 48.9786 277.957 48.9786Z" fill="black"/>
<path d="M8.92745 54.6499C7.49677 54.6499 6.40946 54.3348 5.6655 53.7047C4.97877 53.0745 4.63541 52.2153 4.63541 51.1268C4.63541 50.0957 4.95016 48.9787 5.57966 47.7757C6.20916 46.5727 7.09618 45.4556 8.24073 44.4245C8.58409 44.1381 8.87023 43.9662 9.09914 43.9089C9.27082 43.9089 9.41389 43.9662 9.52834 44.0808C9.58557 44.1381 9.61418 44.2526 9.61418 44.4245C9.61418 44.8255 9.35666 45.2838 8.84162 45.7993C7.23925 47.4606 6.43807 48.8641 6.43807 50.0098C6.43807 50.6399 6.72421 51.2128 7.29648 51.7283C7.86875 52.2439 8.52687 52.473 9.27082 52.4158C12.1322 52.3012 15.0794 51.6711 18.1124 50.5253C21.1455 49.3797 23.9782 47.8043 26.6107 45.7993C29.2431 43.7371 31.4178 41.3884 33.1346 38.7533C34.3936 36.9202 35.0231 35.3162 35.0231 33.9414C35.0231 32.1655 33.8785 31.2776 31.5895 31.2776C31.1889 31.2776 30.731 31.3349 30.216 31.4495C29.701 31.5067 29.1287 31.5927 28.4992 31.7072L24.2071 32.6524C20.7163 33.3971 17.626 34.0559 14.9363 34.6288C12.2466 35.1443 9.84309 35.4021 7.72568 35.4021C5.26491 35.4021 3.3478 35.0298 1.97434 34.2851C0.658115 33.4831 0 32.1369 0 30.2465C0 29.3872 0.171683 28.3561 0.515046 27.1531C1.65959 23.3723 4.72125 19.3623 9.70002 15.1232C13.0764 12.259 16.8534 9.7098 21.031 7.47569C25.2086 5.18429 29.4148 3.37981 33.6496 2.06226C37.9417 0.687421 41.9476 0 45.6674 0C48.5287 0 50.7892 0.630134 52.4488 1.8904C54.1656 3.15067 55.024 4.86922 55.024 7.04605C55.024 9.05103 54.3087 11.1992 52.878 13.4906C52.4774 14.0635 52.134 14.3499 51.8479 14.3499C51.7335 14.3499 51.619 14.264 51.5045 14.0921C51.3901 13.863 51.3329 13.6338 51.3329 13.4047C51.3329 13.3474 51.3329 13.2615 51.3329 13.1469C51.3901 12.975 51.4473 12.7746 51.5045 12.5454C51.9624 11.1706 52.1913 9.85302 52.1913 8.59275C52.1913 6.64506 51.5045 5.18429 50.1311 4.21045C48.8149 3.2366 46.8978 2.86425 44.3798 3.09339C39.9733 3.55167 34.9373 4.95515 29.2718 7.30384C25.4375 8.90781 21.8036 10.7982 18.37 12.975C14.9935 15.1519 12.075 17.4719 9.61418 19.9352C7.21064 22.3411 5.55104 24.7758 4.63541 27.239C4.4065 27.6973 4.29205 28.2415 4.29205 28.8716C4.29205 31.163 6.55252 32.3087 11.0735 32.3087C13.2481 32.3087 15.623 32.0796 18.1983 31.6213C20.8307 31.163 23.8638 30.5902 27.2974 29.9028L30.3018 29.3013C31.3319 29.1294 32.3334 29.0435 33.3063 29.0435C35.1375 29.0435 36.5968 29.4158 37.6842 30.1605C38.7715 30.9052 39.3151 31.9364 39.3151 33.2539C39.3151 34.4569 38.8001 35.889 37.77 37.5503C36.7971 39.097 35.6526 40.5864 34.3364 42.0185C33.0201 43.3934 31.5608 44.7396 29.9585 46.0571C26.6965 48.6922 23.2057 50.7831 19.4859 52.3298C15.7661 53.8765 12.2466 54.6499 8.92745 54.6499Z" fill="black"/>
<path d="M151.996 54.6499C150.565 54.6499 149.478 54.3348 148.734 53.7047C148.047 53.0745 147.704 52.2153 147.704 51.1268C147.704 50.0957 148.018 48.9787 148.648 47.7757C149.277 46.5727 150.164 45.4556 151.309 44.4245C151.652 44.1381 151.938 43.9662 152.167 43.9089C152.339 43.9089 152.482 43.9662 152.596 44.0808C152.654 44.1381 152.682 44.2526 152.682 44.4245C152.682 44.8255 152.425 45.2838 151.91 45.7993C150.307 47.4606 149.506 48.8641 149.506 50.0098C149.506 50.6399 149.792 51.2128 150.365 51.7283C150.937 52.2439 151.595 52.473 152.339 52.4158C155.2 52.3012 158.147 51.6711 161.181 50.5253C164.214 49.3797 167.046 47.8043 169.679 45.7993C172.311 43.7371 174.486 41.3884 176.203 38.7533C177.462 36.9202 178.091 35.3162 178.091 33.9414C178.091 32.1655 176.947 31.2776 174.658 31.2776C174.257 31.2776 173.799 31.3349 173.284 31.4495C172.769 31.5067 172.197 31.5927 171.567 31.7072L167.275 32.6524C163.784 33.3971 160.694 34.0559 158.004 34.6288C155.315 35.1443 152.911 35.4021 150.794 35.4021C148.333 35.4021 146.416 35.0298 145.042 34.2851C143.726 33.4831 143.068 32.1369 143.068 30.2465C143.068 29.3872 143.24 28.3561 143.583 27.1531C144.728 23.3723 147.789 19.3623 152.768 15.1232C156.145 12.259 159.922 9.7098 164.099 7.47569C168.277 5.18429 172.483 3.37981 176.718 2.06226C181.01 0.687421 185.016 0 188.735 0C191.597 0 193.857 0.630134 195.517 1.8904C197.234 3.15067 198.092 4.86922 198.092 7.04605C198.092 9.05103 197.377 11.1992 195.946 13.4906C195.546 14.0635 195.202 14.3499 194.916 14.3499C194.802 14.3499 194.687 14.264 194.573 14.0921C194.458 13.863 194.401 13.6338 194.401 13.4047C194.401 13.3474 194.401 13.2615 194.401 13.1469C194.458 12.975 194.515 12.7746 194.573 12.5454C195.03 11.1706 195.259 9.85302 195.259 8.59275C195.259 6.64506 194.573 5.18429 193.199 4.21045C191.883 3.2366 189.966 2.86425 187.448 3.09339C183.041 3.55167 178.005 4.95515 172.34 7.30384C168.506 8.90781 164.872 10.7982 161.438 12.975C158.062 15.1519 155.143 17.4719 152.682 19.9352C150.279 22.3411 148.619 24.7758 147.704 27.239C147.475 27.6973 147.36 28.2415 147.36 28.8716C147.36 31.163 149.621 32.3087 154.142 32.3087C156.316 32.3087 158.691 32.0796 161.266 31.6213C163.899 31.163 166.932 30.5902 170.366 29.9028L173.37 29.3013C174.4 29.1294 175.402 29.0435 176.374 29.0435C178.206 29.0435 179.665 29.4158 180.752 30.1605C181.84 30.9052 182.383 31.9364 182.383 33.2539C182.383 34.4569 181.868 35.889 180.838 37.5503C179.865 39.097 178.721 40.5864 177.404 42.0185C176.088 43.3934 174.629 44.7396 173.027 46.0571C169.765 48.6922 166.274 50.7831 162.554 52.3298C158.834 53.8765 155.315 54.6499 151.996 54.6499Z" fill="black"/>
</svg>
