<svg width="48" height="48" viewBox="0 0 48 48" fill="none" xmlns="http://www.w3.org/2000/svg">
<path d="M24 35.4999C27.1944 35.4999 29.9097 34.3819 32.1458 32.1458C34.3819 29.9097 35.4999 27.1944 35.4999 24C35.4999 20.8974 34.439 18.2372 32.3173 16.0192C30.1955 13.8013 27.5897 12.641 24.5 12.5385V24.2007L16.2308 32.4615C17.3205 33.4205 18.5263 34.1666 19.8481 34.6999C21.1699 35.2332 22.5538 35.4999 24 35.4999ZM24.0033 42.9999C21.3754 42.9999 18.9054 42.5012 16.5931 41.5039C14.2808 40.5066 12.2694 39.1531 10.559 37.4434C8.84853 35.7337 7.49442 33.7232 6.49665 31.412C5.49888 29.1007 5 26.6312 5 24.0033C5 21.3754 5.49867 18.9054 6.496 16.5931C7.49333 14.2808 8.84683 12.2694 10.5565 10.559C12.2662 8.84854 14.2767 7.49442 16.588 6.49665C18.8992 5.49889 21.3687 5 23.9966 5C26.6245 5 29.0945 5.49867 31.4068 6.496C33.7191 7.49334 35.7305 8.84683 37.4409 10.5565C39.1514 12.2662 40.5055 14.2767 41.5033 16.588C42.501 18.8992 42.9999 21.3687 42.9999 23.9966C42.9999 26.6245 42.5012 29.0945 41.5039 31.4068C40.5066 33.7191 39.1531 35.7305 37.4434 37.4409C35.7337 39.1514 33.7232 40.5055 31.412 41.5033C29.1007 42.501 26.6312 42.9999 24.0033 42.9999ZM24 40C28.4666 40 32.25 38.45 35.35 35.35C38.45 32.25 40 28.4666 40 24C40 19.5333 38.45 15.75 35.35 12.65C32.25 9.54995 28.4666 7.99995 24 7.99995C19.5333 7.99995 15.75 9.54995 12.65 12.65C9.54995 15.75 7.99995 19.5333 7.99995 24C7.99995 28.4666 9.54995 32.25 12.65 35.35C15.75 38.45 19.5333 40 24 40Z" fill="#5D7CFB"/>
</svg>
