<svg width="32" height="32" viewBox="0 0 32 32" fill="none" xmlns="http://www.w3.org/2000/svg">
<path d="M15.7951 28.6666C14.0428 28.6666 12.3962 28.3342 10.8551 27.6693C9.31396 27.0044 7.97342 26.1021 6.83342 24.9623C5.69342 23.8225 4.79092 22.4822 4.12592 20.9413C3.46092 19.4005 3.12842 17.7542 3.12842 16.0022C3.12842 14.2503 3.46092 12.6036 4.12592 11.0621C4.79092 9.52057 5.69342 8.17967 6.83342 7.03938C7.97342 5.89906 9.31396 4.99632 10.8551 4.33114C12.3962 3.66596 14.0428 3.33337 15.7951 3.33337C17.6138 3.33337 19.3378 3.69919 20.9668 4.43081C22.5959 5.16243 24.0138 6.19747 25.2207 7.53594L15.7951 16.9487V5.33334C12.8173 5.33334 10.2951 6.36667 8.22838 8.43334C6.16172 10.5 5.12838 13.0222 5.12838 16C5.12838 18.9778 6.16172 21.5 8.22838 23.5667C10.2951 25.6333 12.8173 26.6667 15.7951 26.6667C17.4224 26.6667 18.9617 26.3073 20.413 25.5885C21.8643 24.8697 23.1028 23.8701 24.1284 22.5897V25.4358C22.9677 26.4512 21.6754 27.2435 20.2515 27.8128C18.8275 28.382 17.3421 28.6666 15.7951 28.6666ZM26.7951 24V13.6667H28.795V24H26.7951ZM27.795 28.4358C27.4899 28.4358 27.2342 28.3326 27.0278 28.1262C26.8214 27.9198 26.7182 27.6641 26.7182 27.3589C26.7182 27.0538 26.8214 26.798 27.0278 26.5916C27.2342 26.3852 27.4899 26.282 27.795 26.282C28.1002 26.282 28.3559 26.3852 28.5623 26.5916C28.7687 26.798 28.872 27.0538 28.872 27.3589C28.872 27.6641 28.7687 27.9198 28.5623 28.1262C28.3559 28.3326 28.1002 28.4358 27.795 28.4358Z" fill="#5D7CFB"/>
</svg>
