<svg width="87" height="119" viewBox="0 0 87 119" fill="none" xmlns="http://www.w3.org/2000/svg">
<path d="M0 12.4644V107.241C0 113.735 5.26464 119 11.7589 119H74.7866C81.2808 119 86.5455 113.735 86.5455 107.241V33.8656H52.6798V0H11.5237C5.02946 0 0 5.97017 0 12.4644Z" fill="#2F46C7"/>
<path d="M52.6798 33.8656H86.5455L52.6798 0V33.8656Z" fill="#939DD7"/>
<path d="M18.75 82H14.9648L14.9883 78.8359H18.75C19.5312 78.8359 20.1914 78.6484 20.7305 78.2734C21.2773 77.8984 21.6914 77.3398 21.9727 76.5977C22.2617 75.8477 22.4062 74.9258 22.4062 73.832V73.0938C22.4062 72.2734 22.3242 71.5547 22.1602 70.9375C22.0039 70.3125 21.7695 69.793 21.457 69.3789C21.1445 68.957 20.7539 68.6406 20.2852 68.4297C19.8242 68.2188 19.293 68.1133 18.6914 68.1133H14.8945V64.9375H18.6914C19.8477 64.9375 20.9062 65.1367 21.8672 65.5352C22.8359 65.9258 23.6719 66.4883 24.375 67.2227C25.0859 67.9492 25.6328 68.8125 26.0156 69.8125C26.4062 70.8047 26.6016 71.9062 26.6016 73.1172V73.832C26.6016 75.0352 26.4062 76.1367 26.0156 77.1367C25.6328 78.1367 25.0898 79 24.3867 79.7266C23.6836 80.4531 22.8516 81.0156 21.8906 81.4141C20.9375 81.8047 19.8906 82 18.75 82ZM17.3203 64.9375V82H13.207V64.9375H17.3203ZM43.1836 73.1289V73.8203C43.1836 75.125 43 76.2969 42.6328 77.3359C42.2734 78.3672 41.7617 79.25 41.0977 79.9844C40.4336 80.7109 39.6484 81.2695 38.7422 81.6602C37.8359 82.043 36.8359 82.2344 35.7422 82.2344C34.6406 82.2344 33.6328 82.043 32.7188 81.6602C31.8125 81.2695 31.0234 80.7109 30.3516 79.9844C29.6875 79.25 29.1719 78.3672 28.8047 77.3359C28.4453 76.2969 28.2656 75.125 28.2656 73.8203V73.1289C28.2656 71.8242 28.4453 70.6523 28.8047 69.6133C29.1719 68.5742 29.6836 67.6914 30.3398 66.9648C31.0039 66.2305 31.7891 65.6719 32.6953 65.2891C33.6094 64.8984 34.6172 64.7031 35.7188 64.7031C36.8125 64.7031 37.8125 64.8984 38.7188 65.2891C39.6328 65.6719 40.4219 66.2305 41.0859 66.9648C41.75 67.6914 42.2656 68.5742 42.6328 69.6133C43 70.6523 43.1836 71.8242 43.1836 73.1289ZM39.0117 73.8203V73.1055C39.0117 72.2617 38.9375 71.5195 38.7891 70.8789C38.6484 70.2305 38.4375 69.6875 38.1562 69.25C37.875 68.8125 37.5273 68.4844 37.1133 68.2656C36.707 68.0391 36.2422 67.9258 35.7188 67.9258C35.1719 67.9258 34.6953 68.0391 34.2891 68.2656C33.8828 68.4844 33.543 68.8125 33.2695 69.25C32.9961 69.6875 32.7891 70.2305 32.6484 70.8789C32.5156 71.5195 32.4492 72.2617 32.4492 73.1055V73.8203C32.4492 74.6562 32.5156 75.3984 32.6484 76.0469C32.7891 76.6875 32.9961 77.2305 33.2695 77.6758C33.5508 78.1211 33.8945 78.457 34.3008 78.6836C34.7148 78.9102 35.1953 79.0234 35.7422 79.0234C36.2656 79.0234 36.7305 78.9102 37.1367 78.6836C37.543 78.457 37.8828 78.1211 38.1562 77.6758C38.4375 77.2305 38.6484 76.6875 38.7891 76.0469C38.9375 75.3984 39.0117 74.6562 39.0117 73.8203ZM55.0195 76.2227H59.1211C59.0664 77.4102 58.7461 78.457 58.1602 79.3633C57.5742 80.2695 56.7617 80.9766 55.7227 81.4844C54.6914 81.9844 53.4727 82.2344 52.0664 82.2344C50.9258 82.2344 49.9062 82.043 49.0078 81.6602C48.1172 81.2773 47.3594 80.7266 46.7344 80.0078C46.1172 79.2891 45.6445 78.418 45.3164 77.3945C44.9961 76.3711 44.8359 75.2188 44.8359 73.9375V73.0117C44.8359 71.7305 45.0039 70.5781 45.3398 69.5547C45.6836 68.5234 46.168 67.6484 46.793 66.9297C47.4258 66.2031 48.1836 65.6484 49.0664 65.2656C49.9492 64.8828 50.9297 64.6914 52.0078 64.6914C53.4922 64.6914 54.7461 64.957 55.7695 65.4883C56.793 66.0195 57.5859 66.75 58.1484 67.6797C58.7109 68.6016 59.043 69.6523 59.1445 70.832H55.043C55.0273 70.1914 54.918 69.6562 54.7148 69.2266C54.5117 68.7891 54.1914 68.4609 53.7539 68.2422C53.3164 68.0234 52.7344 67.9141 52.0078 67.9141C51.5 67.9141 51.0586 68.0078 50.6836 68.1953C50.3086 68.3828 49.9961 68.6797 49.7461 69.0859C49.4961 69.4922 49.3086 70.0195 49.1836 70.668C49.0664 71.3086 49.0078 72.082 49.0078 72.9883V73.9375C49.0078 74.8438 49.0625 75.6172 49.1719 76.2578C49.2812 76.8984 49.457 77.4219 49.6992 77.8281C49.9414 78.2344 50.2539 78.5352 50.6367 78.7305C51.0273 78.918 51.5039 79.0117 52.0664 79.0117C52.6914 79.0117 53.2188 78.9141 53.6484 78.7188C54.0781 78.5156 54.4102 78.2109 54.6445 77.8047C54.8789 77.3906 55.0039 76.8633 55.0195 76.2227ZM64.6406 64.9375L67.4297 70.6094L70.2188 64.9375H74.9062L70.1484 73.3984L75.0352 82H70.3008L67.4297 76.2227L64.5586 82H59.8125L64.7109 73.3984L59.9414 64.9375H64.6406Z" fill="#FFFEFE"/>
</svg>
