<svg width="24" height="14" viewBox="0 0 24 14" fill="none" xmlns="http://www.w3.org/2000/svg">
<path d="M1 10.7778C1 10.7778 1.27334 10.3927 2.89401 8.61544C3.40675 8.05316 3.99319 7.47388 4.64861 6.92312M23 10.7778C23 10.7778 22.7266 10.3927 21.106 8.61544C20.5932 8.05316 20.0068 7.47388 19.3513 6.92312M12 3.96158V1.00004M12 3.96158C9.04325 3.96158 6.55431 5.32177 4.64861 6.92312M12 3.96158C14.9567 3.96158 17.4457 5.32177 19.3513 6.92312M4.64861 6.92312L2.89401 3.96158M19.3513 6.92312L21.106 3.96158" stroke="#9C9C9C" stroke-linecap="round" stroke-linejoin="round"/>
<circle cx="12" cy="8.33348" r="4.8889" fill="#9C9C9C"/>
</svg>
