<svg width="24" height="24" viewBox="0 0 24 24" fill="none" xmlns="http://www.w3.org/2000/svg">
<path d="M9.55 13.5269L10.4538 10.3962L7.95385 8.7923H11.0654L12 5.43463L12.9346 8.7923H16.0462L13.5654 10.3962L14.4692 13.5269L12 11.6L9.55 13.5269ZM6.25 22.3615V14.9462C5.6 14.2397 5.10417 13.4394 4.7625 12.5452C4.42083 11.651 4.25 10.7192 4.25 9.75C4.25 7.59872 5.00384 5.76922 6.51152 4.26152C8.01922 2.75384 9.84872 2 12 2C14.1513 2 15.9808 2.75384 17.4885 4.26152C18.9962 5.76922 19.75 7.59872 19.75 9.75C19.75 10.7192 19.5875 11.651 19.2625 12.5452C18.9375 13.4394 18.4333 14.2397 17.75 14.9462V22.3615L12 20.5116L6.25 22.3615ZM12 15.85C13.7 15.85 15.1417 15.2583 16.325 14.075C17.5083 12.8917 18.1 11.45 18.1 9.75C18.1 8.05 17.5083 6.60833 16.325 5.425C15.1417 4.24167 13.7 3.65 12 3.65C10.3 3.65 8.85833 4.24167 7.675 5.425C6.49167 6.60833 5.9 8.05 5.9 9.75C5.9 11.45 6.49167 12.8917 7.675 14.075C8.85833 15.2583 10.3 15.85 12 15.85Z" fill="#D2D2D2"/>
</svg>
