<svg width="33" height="32" viewBox="0 0 33 32" fill="none" xmlns="http://www.w3.org/2000/svg">
<path d="M16.4394 25.3743C15.327 24.6324 14.1437 24.0512 12.8895 23.6307C11.6353 23.2102 10.3227 23 8.95186 23C8.22671 23 7.53052 23.0581 6.8633 23.1743C6.19606 23.2906 5.53544 23.4769 4.88145 23.7333C4.33674 23.9487 3.81097 23.8949 3.30415 23.5718C2.79735 23.2487 2.54395 22.7897 2.54395 22.1949V9.35894C2.54395 8.96111 2.64927 8.59887 2.85992 8.2722C3.07057 7.94552 3.3513 7.71118 3.70211 7.56921C4.52392 7.24612 5.37898 7.0038 6.26727 6.84227C7.15557 6.68074 8.0484 6.59997 8.94577 6.59997C10.2986 6.59997 11.6094 6.80083 12.8782 7.20254C14.147 7.60425 15.3544 8.14362 16.5002 8.82064V23.5641C17.6513 22.853 18.873 22.3256 20.1651 21.982C21.4572 21.6384 22.7564 21.4666 24.0627 21.4666C24.8172 21.4666 25.4487 21.4948 25.9573 21.5512C26.4659 21.6077 27.1741 21.7607 28.0819 22.0102C28.2758 22.0615 28.4565 22.0658 28.624 22.023C28.7915 21.9803 28.8752 21.8393 28.8752 21.6V7.38457C29.0193 7.41022 29.1574 7.44569 29.2896 7.491C29.4218 7.53629 29.5481 7.59655 29.6685 7.67177C29.9311 7.81375 30.1281 8.01816 30.2594 8.28501C30.3908 8.55187 30.4564 8.84147 30.4564 9.1538V22.2102C30.4564 22.8051 30.1898 23.2487 29.6566 23.541C29.1233 23.8333 28.5579 23.8803 27.9603 23.682C27.3239 23.4427 26.6853 23.2692 26.0446 23.1615C25.4038 23.0538 24.7384 23 24.0485 23C22.6601 23 21.3184 23.1974 20.0236 23.5923C18.7288 23.9872 17.5341 24.5812 16.4394 25.3743ZM19.2502 20.2V8.59997L26.1252 1.86664V14.1333L19.2502 20.2Z" fill="#5D7CFB"/>
</svg>
