<svg width="24" height="24" viewBox="0 0 24 24" fill="none" xmlns="http://www.w3.org/2000/svg">
<path d="M5.46557 20.8C4.82657 20.8 4.28925 20.5821 3.85362 20.1465C3.418 19.7109 3.2002 19.1736 3.2002 18.5346V5.46533C3.2002 4.82633 3.418 4.28901 3.85362 3.85338C4.28925 3.41776 4.82657 3.19995 5.46557 3.19995H12.0194V4.84995H5.46557C5.31174 4.84995 5.17071 4.91405 5.0425 5.04225C4.9143 5.17047 4.8502 5.31149 4.8502 5.46533V18.5346C4.8502 18.6884 4.9143 18.8294 5.0425 18.9577C5.17071 19.0859 5.31174 19.15 5.46557 19.15H12.0194V20.8H5.46557ZM16.2617 16.5384L15.0348 15.3192L17.554 12.8H9.0425V11.15H17.554L15.0348 8.63073L16.2617 7.46148L20.8002 12L16.2617 16.5384Z" fill="#D2D2D2"/>
</svg>
