<svg width="127" height="127" viewBox="0 0 127 127" fill="none" xmlns="http://www.w3.org/2000/svg">
<path d="M53.46 116.592C23.9349 111.25 4.33032 82.985 9.67198 53.4599C15.0137 23.9348 43.2787 4.33025 72.8038 9.67192" stroke="black"/>
<path d="M9.672 53.4599C15.0137 23.9348 43.2787 4.33023 72.8038 9.67188C102.329 15.0135 121.933 43.2786 116.592 72.8037" stroke="black"/>
<path d="M43.6077 88.6742C42.1966 88.6742 41.1241 88.3638 40.3904 87.7429C39.713 87.122 39.3744 86.2753 39.3744 85.2029C39.3744 84.1869 39.6848 83.0862 40.3057 81.9009C40.9266 80.7156 41.8015 79.6149 42.9304 78.5989C43.269 78.3167 43.5513 78.1473 43.777 78.0909C43.9464 78.0909 44.0875 78.1473 44.2004 78.2602C44.2568 78.3167 44.285 78.4296 44.285 78.5989C44.285 78.994 44.031 79.4456 43.523 79.9536C41.9426 81.5905 41.1524 82.9733 41.1524 84.1022C41.1524 84.7231 41.4346 85.2876 41.999 85.7956C42.5635 86.3036 43.2126 86.5293 43.9464 86.4729C46.7686 86.36 49.6755 85.7391 52.667 84.6102C55.6586 83.4813 58.4526 81.9291 61.049 79.9536C63.6455 77.9216 65.7904 75.6073 67.4837 73.0109C68.7255 71.2047 69.3464 69.6242 69.3464 68.2696C69.3464 66.5198 68.2175 65.6449 65.9597 65.6449C65.5646 65.6449 65.113 65.7013 64.605 65.8142C64.097 65.8707 63.5326 65.9553 62.9117 66.0682L58.6784 66.9996C55.2353 67.7333 52.1873 68.3825 49.5344 68.9469C46.8815 69.4549 44.5108 69.7089 42.4224 69.7089C39.9953 69.7089 38.1044 69.342 36.7497 68.6082C35.4515 67.818 34.8024 66.4916 34.8024 64.6289C34.8024 63.7822 34.9717 62.7662 35.3104 61.5809C36.4393 57.8556 39.459 53.9045 44.3697 49.7276C47.6999 46.9053 51.4253 44.3936 55.5457 42.1922C59.6661 39.9345 63.8148 38.1565 67.9917 36.8582C72.225 35.5036 76.1761 34.8262 79.845 34.8262C82.6673 34.8262 84.8968 35.4471 86.5337 36.6889C88.227 37.9307 89.0737 39.624 89.0737 41.7689C89.0737 43.7445 88.3681 45.8611 86.957 48.1189C86.5619 48.6833 86.2233 48.9656 85.941 48.9656C85.8281 48.9656 85.7153 48.8809 85.6024 48.7116C85.4895 48.4858 85.433 48.26 85.433 48.0342C85.433 47.9778 85.433 47.8931 85.433 47.7802C85.4895 47.6109 85.5459 47.4133 85.6024 47.1876C86.0539 45.8329 86.2797 44.5347 86.2797 43.2929C86.2797 41.3738 85.6024 39.9345 84.2477 38.9749C82.9495 38.0153 81.0586 37.6485 78.575 37.8742C74.2288 38.3258 69.2617 39.7087 63.6737 42.0229C59.8919 43.6033 56.3077 45.466 52.921 47.6109C49.5908 49.7558 46.7121 52.0418 44.285 54.4689C41.9144 56.8396 40.2775 59.2385 39.3744 61.6656C39.1486 62.1171 39.0357 62.6533 39.0357 63.2742C39.0357 65.532 41.2653 66.6609 45.7244 66.6609C47.8693 66.6609 50.2117 66.4351 52.7517 65.9836C55.3481 65.532 58.3397 64.9676 61.7264 64.2902L64.6897 63.6976C65.7057 63.5282 66.6935 63.4436 67.653 63.4436C69.4593 63.4436 70.8986 63.8105 71.971 64.5442C73.0435 65.278 73.5797 66.294 73.5797 67.5922C73.5797 68.7776 73.0717 70.1887 72.0557 71.8256C71.0961 73.3496 69.9673 74.8171 68.669 76.2282C67.3708 77.5829 65.9315 78.9093 64.351 80.2076C61.1337 82.804 57.6906 84.8642 54.0217 86.3882C50.3528 87.9122 46.8815 88.6742 43.6077 88.6742Z" fill="black"/>
<path d="M45.0188 94.3187C43.6077 94.3187 42.5353 94.0082 41.8015 93.3873C41.1242 92.7664 40.7855 91.9198 40.7855 90.8473C40.7855 89.8313 41.0959 88.7307 41.7168 87.5453C42.3377 86.36 43.2126 85.2593 44.3415 84.2433C44.6802 83.9611 44.9624 83.7918 45.1882 83.7353C45.3575 83.7353 45.4986 83.7918 45.6115 83.9047C45.6679 83.9611 45.6962 84.074 45.6962 84.2433C45.6962 84.6385 45.4422 85.09 44.9342 85.598C43.3537 87.2349 42.5635 88.6178 42.5635 89.7467C42.5635 90.3676 42.8457 90.932 43.4102 91.44C43.9746 91.948 44.6237 92.1738 45.3575 92.1173C48.1797 92.0044 51.0866 91.3836 54.0782 90.2547C57.0697 89.1258 59.8637 87.5736 62.4602 85.598C65.0566 83.566 67.2015 81.2518 68.8948 78.6553C70.1366 76.8491 70.7575 75.2687 70.7575 73.914C70.7575 72.1642 69.6286 71.2893 67.3708 71.2893C66.9757 71.2893 66.5242 71.3458 66.0162 71.4587C65.5082 71.5151 64.9437 71.5998 64.3228 71.7127L60.0895 72.644C56.6464 73.3778 53.5984 74.0269 50.9455 74.5913C48.2926 75.0993 45.9219 75.3533 43.8335 75.3533C41.4064 75.3533 39.5155 74.9865 38.1608 74.2527C36.8626 73.4624 36.2135 72.136 36.2135 70.2733C36.2135 69.4267 36.3828 68.4107 36.7215 67.2253C37.8504 63.5 40.8702 59.5489 45.7808 55.372C49.1111 52.5498 52.8364 50.038 56.9568 47.8367C61.0773 45.5789 65.2259 43.8009 69.4028 42.5027C73.6362 41.148 77.5873 40.4707 81.2562 40.4707C84.0784 40.4707 86.3079 41.0916 87.9448 42.3333C89.6382 43.5751 90.4848 45.2684 90.4848 47.4133C90.4848 49.3889 89.7793 51.5056 88.3682 53.7633C87.9731 54.3278 87.6344 54.61 87.3522 54.61C87.2393 54.61 87.1264 54.5253 87.0135 54.356C86.9006 54.1302 86.8442 53.9045 86.8442 53.6787C86.8442 53.6222 86.8442 53.5376 86.8442 53.4247C86.9006 53.2553 86.9571 53.0578 87.0135 52.832C87.4651 51.4773 87.6908 50.1791 87.6908 48.9373C87.6908 47.0182 87.0135 45.5789 85.6588 44.6193C84.3606 43.6598 82.4697 43.2929 79.9862 43.5187C75.6399 43.9702 70.6728 45.3531 65.0848 47.6673C61.3031 49.2478 57.7188 51.1105 54.3322 53.2553C51.0019 55.4002 48.1233 57.6862 45.6962 60.1133C43.3255 62.484 41.6886 64.8829 40.7855 67.31C40.5597 67.7616 40.4468 68.2978 40.4468 68.9187C40.4468 71.1765 42.6764 72.3053 47.1355 72.3053C49.2804 72.3053 51.6228 72.0796 54.1628 71.628C56.7593 71.1764 59.7508 70.612 63.1375 69.9347L66.1008 69.342C67.1168 69.1727 68.1046 69.088 69.0642 69.088C70.8704 69.088 72.3097 69.4549 73.3822 70.1887C74.4546 70.9225 74.9908 71.9385 74.9908 73.2367C74.9908 74.422 74.4828 75.8331 73.4668 77.47C72.5073 78.994 71.3784 80.4616 70.0802 81.8727C68.7819 83.2273 67.3426 84.5538 65.7622 85.852C62.5448 88.4485 59.1017 90.5087 55.4328 92.0327C51.7639 93.5567 48.2926 94.3187 45.0188 94.3187Z" fill="black"/>
</svg>
