<svg width="232" height="50" viewBox="0 0 232 50" fill="none" xmlns="http://www.w3.org/2000/svg">
<path d="M74.9858 12.5653C74.9176 11.8778 74.625 11.3437 74.108 10.9631C73.5909 10.5824 72.8892 10.392 72.0028 10.392C71.4006 10.392 70.892 10.4773 70.4773 10.6477C70.0625 10.8125 69.7443 11.0426 69.5227 11.3381C69.3068 11.6335 69.1989 11.9688 69.1989 12.3438C69.1875 12.6562 69.2528 12.929 69.3949 13.1619C69.5426 13.3949 69.7443 13.5966 70 13.767C70.2557 13.9318 70.5511 14.0767 70.8864 14.2017C71.2216 14.321 71.5795 14.4233 71.9602 14.5085L73.5284 14.8835C74.2898 15.054 74.9886 15.2812 75.625 15.5653C76.2614 15.8494 76.8125 16.1989 77.2784 16.6136C77.7443 17.0284 78.1051 17.517 78.3608 18.0795C78.6222 18.642 78.7557 19.2869 78.7614 20.0142C78.7557 21.0824 78.483 22.0085 77.9432 22.7926C77.4091 23.571 76.6364 24.1761 75.625 24.608C74.6193 25.0341 73.4063 25.2472 71.9858 25.2472C70.5767 25.2472 69.3494 25.0312 68.304 24.5994C67.2642 24.1676 66.4517 23.5284 65.8665 22.6818C65.2869 21.8295 64.983 20.7756 64.9545 19.5199H68.5256C68.5653 20.1051 68.733 20.5937 69.0284 20.9858C69.3295 21.3722 69.7301 21.6648 70.2301 21.8636C70.7358 22.0568 71.3068 22.1534 71.9432 22.1534C72.5682 22.1534 73.1108 22.0625 73.571 21.8807C74.0369 21.6989 74.3977 21.446 74.6534 21.1222C74.9091 20.7983 75.0369 20.4261 75.0369 20.0057C75.0369 19.6136 74.9205 19.2841 74.6875 19.017C74.4602 18.75 74.125 18.5227 73.6818 18.3352C73.2443 18.1477 72.7074 17.9773 72.071 17.8239L70.1705 17.3466C68.6989 16.9886 67.5369 16.429 66.6847 15.6676C65.8324 14.9062 65.4091 13.8807 65.4148 12.5909C65.4091 11.5341 65.6903 10.6108 66.2585 9.82102C66.8324 9.03125 67.6193 8.41477 68.6193 7.97159C69.6193 7.52841 70.7557 7.30682 72.0284 7.30682C73.3239 7.30682 74.4545 7.52841 75.4205 7.97159C76.392 8.41477 77.1477 9.03125 77.6875 9.82102C78.2273 10.6108 78.5057 11.5256 78.5227 12.5653H74.9858ZM80.5788 10.5881V7.54545H94.9141V10.5881H89.5703V25H85.9226V10.5881H80.5788ZM108.056 7.54545H111.746V18.8807C111.746 20.1534 111.442 21.267 110.835 22.2216C110.232 23.1761 109.388 23.9205 108.303 24.4545C107.218 24.983 105.954 25.2472 104.511 25.2472C103.062 25.2472 101.795 24.983 100.71 24.4545C99.6243 23.9205 98.7805 23.1761 98.1783 22.2216C97.576 21.267 97.2749 20.1534 97.2749 18.8807V7.54545H100.965V18.5653C100.965 19.2301 101.11 19.821 101.4 20.3381C101.695 20.8551 102.11 21.2614 102.644 21.5568C103.178 21.8523 103.8 22 104.511 22C105.227 22 105.849 21.8523 106.377 21.5568C106.911 21.2614 107.323 20.8551 107.613 20.3381C107.908 19.821 108.056 19.2301 108.056 18.5653V7.54545ZM120.97 25H114.783V7.54545H121.021C122.777 7.54545 124.288 7.89489 125.555 8.59375C126.822 9.28693 127.797 10.2841 128.479 11.5852C129.166 12.8864 129.51 14.4432 129.51 16.2557C129.51 18.0739 129.166 19.6364 128.479 20.9432C127.797 22.25 126.817 23.2528 125.538 23.9517C124.266 24.6506 122.743 25 120.97 25ZM118.473 21.8381H120.817C121.908 21.8381 122.825 21.6449 123.57 21.2585C124.32 20.8665 124.882 20.2614 125.257 19.4432C125.638 18.6193 125.828 17.5568 125.828 16.2557C125.828 14.9659 125.638 13.9119 125.257 13.0938C124.882 12.2756 124.322 11.6733 123.578 11.2869C122.834 10.9006 121.916 10.7074 120.825 10.7074H118.473V21.8381ZM130.166 7.54545H134.3L138.28 15.0625H138.45L142.43 7.54545H146.564L140.197 18.8295V25H136.533V18.8295L130.166 7.54545Z" fill="#5D7CFB"/>
<path d="M163.603 12.5653C163.535 11.8778 163.242 11.3437 162.725 10.9631C162.208 10.5824 161.506 10.392 160.62 10.392C160.018 10.392 159.509 10.4773 159.094 10.6477C158.68 10.8125 158.362 11.0426 158.14 11.3381C157.924 11.6335 157.816 11.9688 157.816 12.3438C157.805 12.6562 157.87 12.929 158.012 13.1619C158.16 13.3949 158.362 13.5966 158.617 13.767C158.873 13.9318 159.168 14.0767 159.504 14.2017C159.839 14.321 160.197 14.4233 160.577 14.5085L162.146 14.8835C162.907 15.054 163.606 15.2812 164.242 15.5653C164.879 15.8494 165.43 16.1989 165.896 16.6136C166.362 17.0284 166.722 17.517 166.978 18.0795C167.239 18.642 167.373 19.2869 167.379 20.0142C167.373 21.0824 167.1 22.0085 166.56 22.7926C166.026 23.571 165.254 24.1761 164.242 24.608C163.237 25.0341 162.023 25.2472 160.603 25.2472C159.194 25.2472 157.967 25.0312 156.921 24.5994C155.881 24.1676 155.069 23.5284 154.484 22.6818C153.904 21.8295 153.6 20.7756 153.572 19.5199H157.143C157.183 20.1051 157.35 20.5937 157.646 20.9858C157.947 21.3722 158.347 21.6648 158.847 21.8636C159.353 22.0568 159.924 22.1534 160.56 22.1534C161.185 22.1534 161.728 22.0625 162.188 21.8807C162.654 21.6989 163.015 21.446 163.271 21.1222C163.526 20.7983 163.654 20.4261 163.654 20.0057C163.654 19.6136 163.538 19.2841 163.305 19.017C163.077 18.75 162.742 18.5227 162.299 18.3352C161.862 18.1477 161.325 17.9773 160.688 17.8239L158.788 17.3466C157.316 16.9886 156.154 16.429 155.302 15.6676C154.45 14.9062 154.026 13.8807 154.032 12.5909C154.026 11.5341 154.308 10.6108 154.876 9.82102C155.45 9.03125 156.237 8.41477 157.237 7.97159C158.237 7.52841 159.373 7.30682 160.646 7.30682C161.941 7.30682 163.072 7.52841 164.038 7.97159C165.009 8.41477 165.765 9.03125 166.305 9.82102C166.844 10.6108 167.123 11.5256 167.14 12.5653H163.603ZM169.861 25V7.54545H176.747C178.071 7.54545 179.199 7.7983 180.131 8.30398C181.063 8.80398 181.773 9.5 182.261 10.392C182.756 11.2784 183.003 12.3011 183.003 13.4602C183.003 14.6193 182.753 15.642 182.253 16.5284C181.753 17.4148 181.028 18.1051 180.08 18.5994C179.136 19.0937 177.994 19.3409 176.653 19.3409H172.264V16.3835H176.057C176.767 16.3835 177.352 16.2614 177.812 16.017C178.278 15.767 178.625 15.4233 178.852 14.9858C179.085 14.5426 179.202 14.0341 179.202 13.4602C179.202 12.8807 179.085 12.375 178.852 11.9432C178.625 11.5057 178.278 11.1676 177.812 10.929C177.347 10.6847 176.756 10.5625 176.04 10.5625H173.551V25H169.861ZM186.393 25H182.438L188.464 7.54545H193.219L199.237 25H195.282L190.91 11.5341H190.773L186.393 25ZM186.146 18.1392H195.487V21.0199H186.146V18.1392ZM215.918 13.6562H212.185C212.116 13.1733 211.977 12.7443 211.767 12.3693C211.557 11.9886 211.287 11.6648 210.957 11.3977C210.628 11.1307 210.247 10.9261 209.815 10.7841C209.389 10.642 208.926 10.571 208.426 10.571C207.523 10.571 206.736 10.7955 206.065 11.2443C205.395 11.6875 204.875 12.3352 204.506 13.1875C204.136 14.0341 203.952 15.0625 203.952 16.2727C203.952 17.517 204.136 18.5625 204.506 19.4091C204.881 20.2557 205.403 20.8949 206.074 21.3267C206.744 21.7585 207.52 21.9744 208.401 21.9744C208.895 21.9744 209.352 21.9091 209.773 21.7784C210.199 21.6477 210.577 21.4574 210.906 21.2074C211.236 20.9517 211.509 20.642 211.724 20.2784C211.946 19.9148 212.099 19.5 212.185 19.0341L215.918 19.0511C215.821 19.8523 215.58 20.625 215.193 21.3693C214.813 22.108 214.298 22.7699 213.651 23.3551C213.009 23.9347 212.241 24.3949 211.349 24.7358C210.463 25.071 209.46 25.2386 208.341 25.2386C206.784 25.2386 205.392 24.8864 204.165 24.1818C202.943 23.4773 201.977 22.4574 201.267 21.1222C200.562 19.7869 200.21 18.1705 200.21 16.2727C200.21 14.3693 200.568 12.75 201.284 11.4148C202 10.0795 202.972 9.0625 204.199 8.36364C205.426 7.65909 206.807 7.30682 208.341 7.30682C209.352 7.30682 210.29 7.44886 211.153 7.73295C212.023 8.01705 212.793 8.43182 213.463 8.97727C214.134 9.51704 214.679 10.179 215.099 10.9631C215.526 11.7472 215.798 12.6449 215.918 13.6562ZM218.564 25V7.54545H230.325V10.5881H222.254V14.7472H229.72V17.7898H222.254V21.9574H230.359V25H218.564Z" fill="#2E2E2E"/>
<path d="M68.8636 46.1818C68.0492 46.1818 67.3447 45.9924 66.75 45.6136C66.1553 45.2311 65.6951 44.7027 65.3693 44.0284C65.0473 43.3504 64.8864 42.5701 64.8864 41.6875C64.8864 40.8087 65.0473 40.0284 65.3693 39.3466C65.6951 38.661 66.1439 38.125 66.7159 37.7386C67.2917 37.3485 67.9564 37.1534 68.7102 37.1534C69.1837 37.1534 69.6402 37.2405 70.0795 37.4148C70.5189 37.5852 70.9129 37.8485 71.2614 38.2045C71.6136 38.5568 71.892 39.0019 72.0966 39.5398C72.3011 40.0739 72.4034 40.7064 72.4034 41.4375V41.9375H65.5852V41.0455H71.3693C71.3693 40.4848 71.2557 39.9811 71.0284 39.5341C70.8049 39.0833 70.4924 38.7273 70.0909 38.4659C69.6932 38.2045 69.233 38.0739 68.7102 38.0739C68.1572 38.0739 67.6705 38.2216 67.25 38.517C66.8295 38.8125 66.5 39.2027 66.2614 39.6875C66.0265 40.1723 65.9072 40.7027 65.9034 41.2784V41.8125C65.9034 42.5057 66.0227 43.1117 66.2614 43.6307C66.5038 44.1458 66.8466 44.5455 67.2898 44.8295C67.733 45.1136 68.2576 45.2557 68.8636 45.2557C69.2765 45.2557 69.6383 45.1913 69.9489 45.0625C70.2633 44.9337 70.5265 44.7614 70.7386 44.5455C70.9545 44.3258 71.1174 44.0852 71.2273 43.8239L72.1875 44.1364C72.0549 44.5038 71.8371 44.8428 71.5341 45.1534C71.2348 45.464 70.8598 45.714 70.4091 45.9034C69.9621 46.089 69.447 46.1818 68.8636 46.1818ZM77.7741 46.1818C77.0582 46.1818 76.4313 45.9924 75.8935 45.6136C75.3556 45.2348 74.9351 44.7064 74.6321 44.0284C74.3329 43.3504 74.1832 42.5606 74.1832 41.6591C74.1832 40.7614 74.3329 39.9754 74.6321 39.3011C74.9351 38.6231 75.3575 38.0966 75.8991 37.7216C76.4408 37.3428 77.0715 37.1534 77.7912 37.1534C78.3215 37.1534 78.7628 37.2481 79.1151 37.4375C79.4673 37.6231 79.7495 37.8542 79.9616 38.1307C80.1738 38.4072 80.3385 38.6761 80.456 38.9375H80.5469V34.3636H81.5639V46H80.5753V44.3807H80.456C80.3385 44.6458 80.1719 44.9186 79.956 45.1989C79.7401 45.4754 79.4541 45.7083 79.098 45.8977C78.7457 46.0871 78.3045 46.1818 77.7741 46.1818ZM77.8935 45.2557C78.4579 45.2557 78.9389 45.1023 79.3366 44.7955C79.7344 44.4848 80.0374 44.0587 80.2457 43.517C80.4579 42.9716 80.5639 42.3466 80.5639 41.642C80.5639 40.9451 80.4598 40.3295 80.2514 39.7955C80.0431 39.2576 79.7401 38.8371 79.3423 38.5341C78.9446 38.2273 78.4616 38.0739 77.8935 38.0739C77.3101 38.0739 76.8177 38.233 76.4162 38.5511C76.0185 38.8655 75.7154 39.2917 75.5071 39.8295C75.3026 40.3674 75.2003 40.9716 75.2003 41.642C75.2003 42.3201 75.3045 42.9318 75.5128 43.4773C75.7211 44.0227 76.0241 44.4564 76.4219 44.7784C76.8234 45.0966 77.3139 45.2557 77.8935 45.2557ZM89.9901 42.6648V37.2727H91.0014V46H89.9901V44.5511H89.9105C89.706 44.9981 89.3821 45.3712 88.9389 45.6705C88.4957 45.9659 87.9541 46.1136 87.3139 46.1136C86.7571 46.1136 86.2628 45.9924 85.831 45.75C85.3991 45.5038 85.0601 45.1439 84.8139 44.6705C84.5677 44.197 84.4446 43.6155 84.4446 42.9261V37.2727H85.456V42.8636C85.456 43.5455 85.6567 44.0947 86.0582 44.5114C86.4598 44.9242 86.9749 45.1307 87.6037 45.1307C87.9976 45.1307 88.3764 45.036 88.7401 44.8466C89.1037 44.6572 89.4029 44.3807 89.6378 44.017C89.8726 43.6496 89.9901 43.1989 89.9901 42.6648ZM97.0881 46.1818C96.3078 46.1818 95.6278 45.9867 95.0483 45.5966C94.4725 45.2064 94.0256 44.6723 93.7074 43.9943C93.3892 43.3163 93.2301 42.5436 93.2301 41.6761C93.2301 40.8011 93.3911 40.0227 93.7131 39.3409C94.0388 38.6591 94.4896 38.125 95.0653 37.7386C95.6411 37.3485 96.3097 37.1534 97.071 37.1534C97.6544 37.1534 98.1828 37.267 98.6562 37.4943C99.1297 37.7178 99.5199 38.0341 99.8267 38.4432C100.137 38.8485 100.332 39.322 100.412 39.8636H99.3892C99.2831 39.3712 99.0275 38.9508 98.6222 38.6023C98.2206 38.25 97.7093 38.0739 97.0881 38.0739C96.5313 38.0739 96.0388 38.2254 95.6108 38.5284C95.1828 38.8277 94.8475 39.2462 94.6051 39.7841C94.3665 40.3182 94.2472 40.9375 94.2472 41.642C94.2472 42.3504 94.3646 42.9773 94.5994 43.5227C94.8343 44.0644 95.1638 44.4886 95.5881 44.7955C96.0161 45.1023 96.5161 45.2557 97.0881 45.2557C97.4744 45.2557 97.8267 45.1837 98.1449 45.0398C98.4669 44.892 98.7358 44.6837 98.9517 44.4148C99.1714 44.1458 99.3191 43.8258 99.3949 43.4545H100.418C100.342 43.9811 100.154 44.4508 99.8551 44.8636C99.5597 45.2727 99.1752 45.5947 98.7017 45.8295C98.232 46.0644 97.6941 46.1818 97.0881 46.1818ZM105.023 46.1989C104.496 46.1989 104.015 46.0966 103.58 45.892C103.144 45.6837 102.797 45.3845 102.54 44.9943C102.282 44.6004 102.153 44.1231 102.153 43.5625C102.153 43.1307 102.235 42.767 102.398 42.4716C102.561 42.1761 102.792 41.9337 103.091 41.7443C103.39 41.5549 103.744 41.4053 104.153 41.2955C104.563 41.1856 105.013 41.1004 105.506 41.0398C105.994 40.9792 106.407 40.9261 106.744 40.8807C107.085 40.8352 107.345 40.7633 107.523 40.6648C107.701 40.5663 107.79 40.4072 107.79 40.1875V39.983C107.79 39.3883 107.612 38.9205 107.256 38.5795C106.903 38.2348 106.396 38.0625 105.733 38.0625C105.104 38.0625 104.591 38.2008 104.193 38.4773C103.799 38.7538 103.523 39.0795 103.364 39.4545L102.403 39.108C102.6 38.6307 102.873 38.25 103.222 37.9659C103.57 37.678 103.96 37.4716 104.392 37.3466C104.824 37.2178 105.261 37.1534 105.705 37.1534C106.038 37.1534 106.384 37.197 106.744 37.2841C107.108 37.3712 107.445 37.5227 107.756 37.7386C108.066 37.9508 108.318 38.2481 108.511 38.6307C108.705 39.0095 108.801 39.4905 108.801 40.0739V46H107.79V44.6193H107.727C107.606 44.8769 107.426 45.1269 107.188 45.3693C106.949 45.6117 106.65 45.8106 106.29 45.9659C105.93 46.1212 105.508 46.1989 105.023 46.1989ZM105.159 45.2727C105.697 45.2727 106.163 45.1534 106.557 44.9148C106.951 44.6761 107.254 44.3598 107.466 43.9659C107.682 43.5682 107.79 43.1307 107.79 42.6534V41.392C107.714 41.464 107.587 41.5284 107.409 41.5852C107.235 41.642 107.032 41.6932 106.801 41.7386C106.574 41.7803 106.347 41.8163 106.119 41.8466C105.892 41.8769 105.688 41.9034 105.506 41.9261C105.013 41.9867 104.593 42.0814 104.244 42.2102C103.896 42.339 103.629 42.517 103.443 42.7443C103.258 42.9678 103.165 43.2557 103.165 43.608C103.165 44.1383 103.354 44.5492 103.733 44.8409C104.112 45.1288 104.587 45.2727 105.159 45.2727ZM114.929 37.2727V38.1534H110.764V37.2727H114.929ZM112.065 35.1818H113.082V43.7216C113.082 44.0852 113.145 44.3712 113.27 44.5795C113.395 44.7841 113.558 44.9299 113.759 45.017C113.959 45.1004 114.173 45.142 114.401 45.142C114.533 45.142 114.647 45.1345 114.741 45.1193C114.836 45.1004 114.92 45.0814 114.991 45.0625L115.207 45.9773C115.109 46.0152 114.988 46.0492 114.844 46.0795C114.7 46.1136 114.522 46.1307 114.31 46.1307C113.938 46.1307 113.58 46.0492 113.236 45.8864C112.895 45.7235 112.615 45.4811 112.395 45.1591C112.175 44.8371 112.065 44.4375 112.065 43.9602V35.1818ZM117.237 46V37.2727H118.254V46H117.237ZM117.754 35.7727C117.546 35.7727 117.368 35.7027 117.22 35.5625C117.072 35.4186 116.999 35.2462 116.999 35.0455C116.999 34.8447 117.072 34.6742 117.22 34.5341C117.368 34.3902 117.546 34.3182 117.754 34.3182C117.963 34.3182 118.141 34.3902 118.288 34.5341C118.436 34.6742 118.51 34.8447 118.51 35.0455C118.51 35.2462 118.436 35.4186 118.288 35.5625C118.141 35.7027 117.963 35.7727 117.754 35.7727ZM124.321 46.1818C123.567 46.1818 122.901 45.9905 122.321 45.608C121.745 45.2254 121.295 44.697 120.969 44.0227C120.643 43.3447 120.48 42.5625 120.48 41.6761C120.48 40.7822 120.643 39.9962 120.969 39.3182C121.295 38.6364 121.745 38.1061 122.321 37.7273C122.901 37.3447 123.567 37.1534 124.321 37.1534C125.075 37.1534 125.74 37.3447 126.315 37.7273C126.891 38.1098 127.342 38.6402 127.668 39.3182C127.997 39.9962 128.162 40.7822 128.162 41.6761C128.162 42.5625 127.999 43.3447 127.673 44.0227C127.348 44.697 126.895 45.2254 126.315 45.608C125.74 45.9905 125.075 46.1818 124.321 46.1818ZM124.321 45.2557C124.927 45.2557 125.44 45.0928 125.861 44.767C126.281 44.4413 126.599 44.0076 126.815 43.4659C127.035 42.9242 127.145 42.3277 127.145 41.6761C127.145 41.0246 127.035 40.4261 126.815 39.8807C126.599 39.3352 126.281 38.8977 125.861 38.5682C125.44 38.2386 124.927 38.0739 124.321 38.0739C123.719 38.0739 123.205 38.2386 122.781 38.5682C122.361 38.8977 122.041 39.3352 121.821 39.8807C121.605 40.4261 121.497 41.0246 121.497 41.6761C121.497 42.3277 121.605 42.9242 121.821 43.4659C122.041 44.0076 122.361 44.4413 122.781 44.767C123.202 45.0928 123.715 45.2557 124.321 45.2557ZM131.393 40.5455V46H130.382V37.2727H131.365V38.642H131.456C131.661 38.1951 131.979 37.8371 132.411 37.5682C132.846 37.2955 133.384 37.1591 134.024 37.1591C134.611 37.1591 135.126 37.2822 135.57 37.5284C136.017 37.7708 136.363 38.1288 136.609 38.6023C136.859 39.0758 136.984 39.6572 136.984 40.3466V46H135.973V40.4091C135.973 39.6932 135.772 39.1269 135.371 38.7102C134.973 38.2936 134.439 38.0852 133.768 38.0852C133.31 38.0852 132.903 38.1837 132.547 38.3807C132.191 38.5777 131.909 38.8617 131.7 39.233C131.496 39.6004 131.393 40.0379 131.393 40.5455ZM146.585 46.1989C146.059 46.1989 145.578 46.0966 145.142 45.892C144.706 45.6837 144.36 45.3845 144.102 44.9943C143.845 44.6004 143.716 44.1231 143.716 43.5625C143.716 43.1307 143.797 42.767 143.96 42.4716C144.123 42.1761 144.354 41.9337 144.653 41.7443C144.953 41.5549 145.307 41.4053 145.716 41.2955C146.125 41.1856 146.576 41.1004 147.068 41.0398C147.557 40.9792 147.97 40.9261 148.307 40.8807C148.648 40.8352 148.907 40.7633 149.085 40.6648C149.263 40.5663 149.352 40.4072 149.352 40.1875V39.983C149.352 39.3883 149.174 38.9205 148.818 38.5795C148.466 38.2348 147.958 38.0625 147.295 38.0625C146.667 38.0625 146.153 38.2008 145.756 38.4773C145.362 38.7538 145.085 39.0795 144.926 39.4545L143.966 39.108C144.163 38.6307 144.436 38.25 144.784 37.9659C145.133 37.678 145.523 37.4716 145.955 37.3466C146.386 37.2178 146.824 37.1534 147.267 37.1534C147.6 37.1534 147.947 37.197 148.307 37.2841C148.67 37.3712 149.008 37.5227 149.318 37.7386C149.629 37.9508 149.881 38.2481 150.074 38.6307C150.267 39.0095 150.364 39.4905 150.364 40.0739V46H149.352V44.6193H149.29C149.169 44.8769 148.989 45.1269 148.75 45.3693C148.511 45.6117 148.212 45.8106 147.852 45.9659C147.492 46.1212 147.07 46.1989 146.585 46.1989ZM146.722 45.2727C147.259 45.2727 147.725 45.1534 148.119 44.9148C148.513 44.6761 148.816 44.3598 149.028 43.9659C149.244 43.5682 149.352 43.1307 149.352 42.6534V41.392C149.277 41.464 149.15 41.5284 148.972 41.5852C148.797 41.642 148.595 41.6932 148.364 41.7386C148.136 41.7803 147.909 41.8163 147.682 41.8466C147.455 41.8769 147.25 41.9034 147.068 41.9261C146.576 41.9867 146.155 42.0814 145.807 42.2102C145.458 42.339 145.191 42.517 145.006 42.7443C144.82 42.9678 144.727 43.2557 144.727 43.608C144.727 44.1383 144.917 44.5492 145.295 44.8409C145.674 45.1288 146.15 45.2727 146.722 45.2727ZM153.054 49.2727V37.2727H154.037V38.9375H154.156C154.277 38.6761 154.444 38.4091 154.656 38.1364C154.868 37.8598 155.149 37.6269 155.497 37.4375C155.849 37.2481 156.293 37.1534 156.827 37.1534C157.546 37.1534 158.175 37.3428 158.713 37.7216C159.255 38.0966 159.675 38.6231 159.974 39.3011C160.277 39.9754 160.429 40.7614 160.429 41.6591C160.429 42.5606 160.277 43.3504 159.974 44.0284C159.675 44.7064 159.255 45.2348 158.713 45.6136C158.175 45.9924 157.55 46.1818 156.838 46.1818C156.312 46.1818 155.87 46.0871 155.514 45.8977C155.162 45.7083 154.876 45.4754 154.656 45.1989C154.44 44.9186 154.274 44.6458 154.156 44.3807H154.065V49.2727H153.054ZM154.054 41.642C154.054 42.3466 154.158 42.9716 154.366 43.517C154.579 44.0587 154.882 44.4848 155.276 44.7955C155.673 45.1023 156.154 45.2557 156.719 45.2557C157.298 45.2557 157.787 45.0966 158.185 44.7784C158.586 44.4564 158.891 44.0227 159.099 43.4773C159.312 42.9318 159.418 42.3201 159.418 41.642C159.418 40.9716 159.313 40.3674 159.105 39.8295C158.901 39.2917 158.598 38.8655 158.196 38.5511C157.795 38.233 157.302 38.0739 156.719 38.0739C156.151 38.0739 155.668 38.2273 155.27 38.5341C154.872 38.8371 154.569 39.2576 154.361 39.7955C154.156 40.3295 154.054 40.9451 154.054 41.642ZM162.648 49.2727V37.2727H163.631V38.9375H163.75C163.871 38.6761 164.038 38.4091 164.25 38.1364C164.462 37.8598 164.742 37.6269 165.091 37.4375C165.443 37.2481 165.886 37.1534 166.42 37.1534C167.14 37.1534 167.769 37.3428 168.307 37.7216C168.848 38.0966 169.269 38.6231 169.568 39.3011C169.871 39.9754 170.023 40.7614 170.023 41.6591C170.023 42.5606 169.871 43.3504 169.568 44.0284C169.269 44.7064 168.848 45.2348 168.307 45.6136C167.769 45.9924 167.144 46.1818 166.432 46.1818C165.905 46.1818 165.464 46.0871 165.108 45.8977C164.756 45.7083 164.47 45.4754 164.25 45.1989C164.034 44.9186 163.867 44.6458 163.75 44.3807H163.659V49.2727H162.648ZM163.648 41.642C163.648 42.3466 163.752 42.9716 163.96 43.517C164.172 44.0587 164.475 44.4848 164.869 44.7955C165.267 45.1023 165.748 45.2557 166.312 45.2557C166.892 45.2557 167.381 45.0966 167.778 44.7784C168.18 44.4564 168.485 44.0227 168.693 43.4773C168.905 42.9318 169.011 42.3201 169.011 41.642C169.011 40.9716 168.907 40.3674 168.699 39.8295C168.494 39.2917 168.191 38.8655 167.79 38.5511C167.388 38.233 166.896 38.0739 166.312 38.0739C165.744 38.0739 165.261 38.2273 164.864 38.5341C164.466 38.8371 164.163 39.2576 163.955 39.7955C163.75 40.3295 163.648 40.9451 163.648 41.642Z" fill="#2E2E2E"/>
<rect width="48" height="48" rx="10" fill="#5D7CFB"/>
<path d="M27.1225 20.5653C27.0543 19.8778 26.7617 19.3437 26.2447 18.9631C25.7276 18.5824 25.0259 18.392 24.1396 18.392C23.5373 18.392 23.0288 18.4773 22.614 18.6477C22.1992 18.8125 21.881 19.0426 21.6594 19.3381C21.4435 19.6335 21.3356 19.9688 21.3356 20.3438C21.3242 20.6562 21.3896 20.929 21.5316 21.1619C21.6793 21.3949 21.881 21.5966 22.1367 21.767C22.3924 21.9318 22.6879 22.0767 23.0231 22.2017C23.3583 22.321 23.7163 22.4233 24.0969 22.5085L25.6651 22.8835C26.4265 23.054 27.1254 23.2812 27.7617 23.5653C28.3981 23.8494 28.9492 24.1989 29.4151 24.6136C29.881 25.0284 30.2418 25.517 30.4975 26.0795C30.7589 26.642 30.8924 27.2869 30.8981 28.0142C30.8924 29.0824 30.6197 30.0085 30.0799 30.7926C29.5458 31.571 28.7731 32.1761 27.7617 32.608C26.756 33.0341 25.543 33.2472 24.1225 33.2472C22.7134 33.2472 21.4862 33.0312 20.4407 32.5994C19.4009 32.1676 18.5884 31.5284 18.0032 30.6818C17.4237 29.8295 17.1197 28.7756 17.0913 27.5199H20.6623C20.7021 28.1051 20.8697 28.5937 21.1651 28.9858C21.4663 29.3722 21.8668 29.6648 22.3668 29.8636C22.8725 30.0568 23.4435 30.1534 24.0799 30.1534C24.7049 30.1534 25.2475 30.0625 25.7077 29.8807C26.1737 29.6989 26.5344 29.446 26.7901 29.1222C27.0458 28.7983 27.1737 28.4261 27.1737 28.0057C27.1737 27.6136 27.0572 27.2841 26.8242 27.017C26.5969 26.75 26.2617 26.5227 25.8185 26.3352C25.381 26.1477 24.8441 25.9773 24.2077 25.8239L22.3072 25.3466C20.8356 24.9886 19.6737 24.429 18.8214 23.6676C17.9691 22.9062 17.5458 21.8807 17.5515 20.5909C17.5458 19.5341 17.8271 18.6108 18.3952 17.821C18.9691 17.0312 19.756 16.4148 20.756 15.9716C21.756 15.5284 22.8924 15.3068 24.1651 15.3068C25.4606 15.3068 26.5913 15.5284 27.5572 15.9716C28.5288 16.4148 29.2844 17.0312 29.8242 17.821C30.364 18.6108 30.6424 19.5256 30.6594 20.5653H27.1225Z" fill="white"/>
</svg>
