<svg width="48" height="48" viewBox="0 0 48 48" fill="none" xmlns="http://www.w3.org/2000/svg">
<path d="M13.1732 31.3076H27.7885V30.5923C27.7885 29.3307 27.1097 28.3012 25.752 27.5038C24.3943 26.7064 22.6373 26.3077 20.4809 26.3077C18.3245 26.3077 16.5674 26.7064 15.2098 27.5038C13.8521 28.3012 13.1732 29.3307 13.1732 30.5923V31.3076ZM20.4809 23.6923C21.4527 23.6923 22.2789 23.3519 22.9597 22.6711C23.6404 21.9903 23.9808 21.1641 23.9808 20.1923C23.9808 19.2205 23.6404 18.3942 22.9597 17.7135C22.2789 17.0327 21.4527 16.6923 20.4809 16.6923C19.5091 16.6923 18.6828 17.0327 18.0021 17.7135C17.3213 18.3942 16.9809 19.2205 16.9809 20.1923C16.9809 21.1641 17.3213 21.9903 18.0021 22.6711C18.6828 23.3519 19.5091 23.6923 20.4809 23.6923ZM9.09631 38.9999C8.08604 38.9999 7.23091 38.6499 6.53091 37.9499C5.83094 37.2499 5.48096 36.3948 5.48096 35.3845V12.6154C5.48096 11.6051 5.83094 10.75 6.53091 10.05C7.23091 9.35 8.08604 9 9.09631 9H31.8654C32.8757 9 33.7308 9.35 34.4308 10.05C35.1308 10.75 35.4808 11.6051 35.4808 12.6154V21.7693L42.5192 14.7309V33.2691L35.4808 26.2307V35.3845C35.4808 36.3948 35.1308 37.2499 34.4308 37.9499C33.7308 38.6499 32.8757 38.9999 31.8654 38.9999H9.09631ZM9.09631 36H31.8654C32.0449 36 32.1924 35.9422 32.3078 35.8268C32.4232 35.7115 32.4809 35.564 32.4809 35.3845V12.6154C32.4809 12.4359 32.4232 12.2885 32.3078 12.173C32.1924 12.0576 32.0449 12 31.8654 12H9.09631C8.91681 12 8.76936 12.0576 8.65396 12.173C8.53856 12.2885 8.48086 12.4359 8.48086 12.6154V35.3845C8.48086 35.564 8.53856 35.7115 8.65396 35.8268C8.76936 35.9422 8.91681 36 9.09631 36Z" fill="#5D7CFB"/>
</svg>
