<svg width="87" height="119" viewBox="0 0 87 119" fill="none" xmlns="http://www.w3.org/2000/svg">
<path d="M0 12.4644V107.241C0 113.735 5.26464 119 11.7589 119H74.7866C81.2808 119 86.5455 113.735 86.5455 107.241V33.8656H52.6798V0H11.5237C5.02946 0 0 5.97017 0 12.4644Z" fill="#E4252A"/>
<path d="M52.6798 33.8656H86.5455L52.6798 0V33.8656Z" fill="#ED676A"/>
<path d="M29.2337 76.4185H24.9915V73.2427H29.2337C29.8118 73.2427 30.2805 73.145 30.6399 72.9497C30.9993 72.7544 31.261 72.4849 31.4251 72.1411C31.5969 71.7896 31.6829 71.395 31.6829 70.9575C31.6829 70.4888 31.5969 70.0552 31.4251 69.6567C31.261 69.2583 30.9993 68.938 30.6399 68.6958C30.2805 68.4458 29.8118 68.3208 29.2337 68.3208H26.5383V82.2075H22.4251V65.145H29.2337C30.6008 65.145 31.7766 65.395 32.761 65.895C33.7532 66.395 34.5149 67.0825 35.0462 67.9575C35.5774 68.8247 35.843 69.8169 35.843 70.9341C35.843 72.0356 35.5774 72.9966 35.0462 73.8169C34.5149 74.6372 33.7532 75.2778 32.761 75.7388C31.7766 76.1919 30.6008 76.4185 29.2337 76.4185ZM43.6008 82.2075H39.8157L39.8391 79.0435H43.6008C44.3821 79.0435 45.0422 78.856 45.5813 78.481C46.1282 78.106 46.5422 77.5474 46.8235 76.8052C47.1126 76.0552 47.2571 75.1333 47.2571 74.0396V73.3013C47.2571 72.481 47.1751 71.7622 47.011 71.145C46.8547 70.52 46.6204 70.0005 46.3079 69.5864C45.9954 69.1646 45.6047 68.8481 45.136 68.6372C44.6751 68.4263 44.1438 68.3208 43.5422 68.3208H39.7454V65.145H43.5422C44.6985 65.145 45.7571 65.3442 46.718 65.7427C47.6868 66.1333 48.5227 66.6958 49.2258 67.4302C49.9368 68.1567 50.4837 69.02 50.8665 70.02C51.2571 71.0122 51.4524 72.1138 51.4524 73.3247V74.0396C51.4524 75.2427 51.2571 76.3442 50.8665 77.3442C50.4837 78.3442 49.9407 79.2075 49.2376 79.9341C48.5344 80.6606 47.7024 81.2231 46.7415 81.6216C45.7883 82.0122 44.7415 82.2075 43.6008 82.2075ZM42.1712 65.145V82.2075H38.0579V65.145H42.1712ZM57.7102 65.145V82.2075H53.5969V65.145H57.7102ZM64.343 72.2466V75.4106H56.5383V72.2466H64.343ZM65.011 65.145V68.3208H56.5383V65.145H65.011Z" fill="#FFFEFE"/>
</svg>
