<svg width="24" height="24" viewBox="0 0 24 24" fill="none" xmlns="http://www.w3.org/2000/svg">
<path d="M12.0002 14.3038C11.7604 14.3038 11.5473 14.2105 11.3608 14.024C11.1742 13.8374 11.081 13.6243 11.081 13.3846C11.081 13.1448 11.1742 12.9317 11.3608 12.7451C11.5473 12.5586 11.7604 12.4653 12.0002 12.4653C12.2399 12.4653 12.4531 12.5586 12.6396 12.7451C12.8262 12.9317 12.9194 13.1448 12.9194 13.3846C12.9194 13.6243 12.8262 13.8374 12.6396 14.024C12.4531 14.2105 12.2399 14.3038 12.0002 14.3038ZM8.0002 14.3038C7.76045 14.3038 7.5473 14.2105 7.36077 14.024C7.17424 13.8374 7.08097 13.6243 7.08097 13.3846C7.08097 13.1448 7.17424 12.9317 7.36077 12.7451C7.5473 12.5586 7.76045 12.4653 8.0002 12.4653C8.23995 12.4653 8.45309 12.5586 8.63962 12.7451C8.82615 12.9317 8.91942 13.1448 8.91942 13.3846C8.91942 13.6243 8.82615 13.8374 8.63962 14.024C8.45309 14.2105 8.23995 14.3038 8.0002 14.3038ZM16.0002 14.3038C15.7604 14.3038 15.5473 14.2105 15.3608 14.024C15.1742 13.8374 15.081 13.6243 15.081 13.3846C15.081 13.1448 15.1742 12.9317 15.3608 12.7451C15.5473 12.5586 15.7604 12.4653 16.0002 12.4653C16.2399 12.4653 16.4531 12.5586 16.6396 12.7451C16.8262 12.9317 16.9194 13.1448 16.9194 13.3846C16.9194 13.6243 16.8262 13.8374 16.6396 14.024C16.4531 14.2105 16.2399 14.3038 16.0002 14.3038ZM12.0002 18.1499C11.7604 18.1499 11.5473 18.0567 11.3608 17.8701C11.1742 17.6836 11.081 17.4704 11.081 17.2307C11.081 16.991 11.1742 16.7778 11.3608 16.5913C11.5473 16.4047 11.7604 16.3115 12.0002 16.3115C12.2399 16.3115 12.4531 16.4047 12.6396 16.5913C12.8262 16.7778 12.9194 16.991 12.9194 17.2307C12.9194 17.4704 12.8262 17.6836 12.6396 17.8701C12.4531 18.0567 12.2399 18.1499 12.0002 18.1499ZM8.0002 18.1499C7.76045 18.1499 7.5473 18.0567 7.36077 17.8701C7.17424 17.6836 7.08097 17.4704 7.08097 17.2307C7.08097 16.991 7.17424 16.7778 7.36077 16.5913C7.5473 16.4047 7.76045 16.3115 8.0002 16.3115C8.23995 16.3115 8.45309 16.4047 8.63962 16.5913C8.82615 16.7778 8.91942 16.991 8.91942 17.2307C8.91942 17.4704 8.82615 17.6836 8.63962 17.8701C8.45309 18.0567 8.23995 18.1499 8.0002 18.1499ZM16.0002 18.1499C15.7604 18.1499 15.5473 18.0567 15.3608 17.8701C15.1742 17.6836 15.081 17.4704 15.081 17.2307C15.081 16.991 15.1742 16.7778 15.3608 16.5913C15.5473 16.4047 15.7604 16.3115 16.0002 16.3115C16.2399 16.3115 16.4531 16.4047 16.6396 16.5913C16.8262 16.7778 16.9194 16.991 16.9194 17.2307C16.9194 17.4704 16.8262 17.6836 16.6396 17.8701C16.4531 18.0567 16.2399 18.1499 16.0002 18.1499ZM5.46557 21.7499C4.82657 21.7499 4.28925 21.5321 3.85362 21.0965C3.418 20.6609 3.2002 20.1236 3.2002 19.4846V6.41532C3.2002 5.77632 3.418 5.239 3.85362 4.80337C4.28925 4.36775 4.82657 4.14994 5.46557 4.14994H6.4348V2.01917H8.16172V4.14994H15.9156V2.01917H17.5656V4.14994H18.5348C19.1738 4.14994 19.7111 4.36775 20.1468 4.80337C20.5824 5.239 20.8002 5.77632 20.8002 6.41532V19.4846C20.8002 20.1236 20.5824 20.6609 20.1468 21.0965C19.7111 21.5321 19.1738 21.7499 18.5348 21.7499H5.46557ZM5.46557 20.0999H18.5348C18.6887 20.0999 18.8297 20.0358 18.9579 19.9076C19.0861 19.7794 19.1502 19.6384 19.1502 19.4846V10.1153H4.8502V19.4846C4.8502 19.6384 4.9143 19.7794 5.0425 19.9076C5.17071 20.0358 5.31174 20.0999 5.46557 20.0999Z" fill="#D2D2D2"/>
</svg>
