<svg width="32" height="32" viewBox="0 0 32 32" fill="none" xmlns="http://www.w3.org/2000/svg">
<path d="M15.9998 14.7794C14.6776 14.7794 13.5582 14.3211 12.6415 13.4044C11.7248 12.4878 11.2665 11.3683 11.2665 10.0461C11.2665 8.72387 11.7248 7.60441 12.6415 6.68774C13.5582 5.77108 14.6776 5.31274 15.9998 5.31274C17.3221 5.31274 18.4415 5.77108 19.3582 6.68774C20.2748 7.60441 20.7332 8.72387 20.7332 10.0461C20.7332 11.3683 20.2748 12.4878 19.3582 13.4044C18.4415 14.3211 17.3221 14.7794 15.9998 14.7794ZM5.6665 26.8538V23.6256C5.6665 22.9196 5.85106 22.2785 6.22017 21.7022C6.5893 21.126 7.08509 20.6799 7.70754 20.364C9.05454 19.694 10.4236 19.1914 11.8147 18.8563C13.2058 18.5213 14.5998 18.3538 15.9968 18.3538C17.3937 18.3538 18.7887 18.5213 20.1819 18.8563C21.5751 19.1914 22.9451 19.694 24.2921 20.364C24.9146 20.6799 25.4104 21.126 25.7795 21.7022C26.1486 22.2785 26.3332 22.9196 26.3332 23.6256V26.8538H5.6665Z" fill="#D2D2D2"/>
</svg>
