<svg width="87" height="119" viewBox="0 0 87 119" fill="none" xmlns="http://www.w3.org/2000/svg">
<path d="M0 12.4644V107.241C0 113.735 5.26464 119 11.7589 119H74.7866C81.2808 119 86.5455 113.735 86.5455 107.241V33.8656H52.6798V0H11.5237C5.02946 0 0 5.97017 0 12.4644Z" fill="#FF702F"/>
<path d="M52.6798 33.8656H86.5455L52.6798 0V33.8656Z" fill="#FFA785"/>
<path d="M38.5735 79.0435V82.2075H26.2219V79.0435H38.5735ZM38.4915 67.2544L28.261 82.2075H25.2844V80.0396L35.6321 65.145H38.4915V67.2544ZM37.1672 65.145V68.3208H25.2258V65.145H37.1672ZM44.8196 65.145V82.2075H40.718V65.145H44.8196ZM54.5227 76.4185H50.2805V73.2427H54.5227C55.1008 73.2427 55.5696 73.145 55.929 72.9497C56.2883 72.7544 56.5501 72.4849 56.7141 72.1411C56.886 71.7896 56.9719 71.395 56.9719 70.9575C56.9719 70.4888 56.886 70.0552 56.7141 69.6567C56.5501 69.2583 56.2883 68.938 55.929 68.6958C55.5696 68.4458 55.1008 68.3208 54.5227 68.3208H51.8274V82.2075H47.7141V65.145H54.5227C55.8899 65.145 57.0657 65.395 58.0501 65.895C59.0423 66.395 59.804 67.0825 60.3352 67.9575C60.8665 68.8247 61.1321 69.8169 61.1321 70.9341C61.1321 72.0356 60.8665 72.9966 60.3352 73.8169C59.804 74.6372 59.0423 75.2778 58.0501 75.7388C57.0657 76.1919 55.8899 76.4185 54.5227 76.4185Z" fill="#FFFEFE"/>
</svg>
